# xmcd
#
# Track frame offsets:
#	150
#	17803
#	32257
#	49491
#	65557
#	81999
#	93668
#	110902
#	125510
#	141571
#	154530
#
# Disc length: 2255 seconds
#
# Revision: 1
# Processed by: cddbd v1.5.2PL0 Copyright (c) Steve Scherf et al.
# Submitted via: EasyCDDAExtractor 12.0.2.1
#
DISCID=9d08cd0b
DTITLE=Bomshel - Fight Like A Girl
DYEAR=2009
DGENRE=Country
TTITLE0=19 And Crazy
TTITLE1=Just Fine
TTITLE2=Arizona
TTITLE3=Fight Like A Girl
TTITLE4=Just This Way
TTITLE5=Karma Is A Female Dog
TTITLE6=Love Me For You
TTITLE7=You
TTITLE8=Thank You
TTITLE9=Just A Girl
TTITLE10=Fiddle
EXTD=
EXTT0=
EXTT1=
EXTT2=
EXTT3=
EXTT4=
EXTT5=
EXTT6=
EXTT7=
EXTT8=
EXTT9=
EXTT10=
PLAYORDER=
